<svg id="svg" version="1.1" width="400" height="230.7270233196159" viewBox="0 0 400 230.7270233196159" xmlns="http://www.w3.org/2000/svg" xmlns:xlink="http://www.w3.org/1999/xlink" ><g id="svgg"><path id="path0" d="M196.422 40.779 C 192.021 40.863,183.627 41.307,181.341 41.576 C 180.218 41.708,179.024 41.845,178.686 41.879 C 178.349 41.914,177.917 42.000,177.726 42.070 C 177.536 42.141,176.290 42.319,174.957 42.466 C 173.624 42.613,171.806 42.880,170.917 43.058 C 170.029 43.236,167.848 43.649,166.070 43.974 C 164.293 44.299,162.681 44.651,162.488 44.756 C 162.294 44.861,160.944 45.184,159.487 45.473 C 158.030 45.762,156.734 46.079,156.607 46.176 C 156.480 46.274,155.445 46.578,154.307 46.853 C 153.170 47.128,152.042 47.458,151.803 47.586 C 151.563 47.715,150.469 48.080,149.371 48.397 C 148.273 48.715,147.271 49.058,147.144 49.160 C 147.017 49.262,146.134 49.575,145.182 49.856 C 144.230 50.136,143.321 50.471,143.162 50.601 C 143.003 50.730,142.872 50.745,142.870 50.634 C 142.868 50.523,142.790 50.537,142.697 50.664 C 142.604 50.791,141.956 51.088,141.258 51.324 C 140.560 51.560,139.553 51.949,139.020 52.189 C 138.488 52.429,137.936 52.626,137.794 52.626 C 137.652 52.626,136.996 52.881,136.335 53.194 C 135.675 53.506,134.670 53.926,134.103 54.126 C 133.536 54.326,132.854 54.632,132.588 54.806 C 132.322 54.980,131.559 55.285,130.893 55.483 C 130.226 55.681,129.247 56.043,128.718 56.286 C 128.188 56.530,127.288 56.911,126.717 57.133 C 126.145 57.354,125.263 57.715,124.755 57.934 C 124.247 58.153,123.260 58.517,122.562 58.744 C 121.864 58.971,121.241 59.227,121.177 59.313 C 121.114 59.399,120.179 59.718,119.100 60.022 C 118.021 60.326,117.085 60.648,117.020 60.737 C 116.955 60.826,116.228 61.054,115.404 61.243 C 110.229 62.431,105.423 62.091,102.803 60.351 C 101.188 59.280,100.516 59.709,101.618 61.108 C 101.743 61.267,101.775 61.396,101.690 61.396 C 101.498 61.396,102.749 63.094,103.029 63.214 C 103.141 63.262,103.426 63.495,103.664 63.733 C 103.902 63.971,104.097 64.112,104.097 64.045 C 104.097 63.979,104.334 64.080,104.624 64.270 C 105.588 64.901,108.530 65.186,110.997 64.886 C 113.834 64.541,115.868 64.125,115.868 63.889 C 115.868 63.788,116.050 63.703,116.272 63.701 C 116.495 63.699,117.663 63.437,118.869 63.117 C 120.075 62.798,121.218 62.502,121.408 62.460 C 121.598 62.418,121.910 62.323,122.100 62.250 C 122.291 62.176,123.122 61.943,123.947 61.733 C 124.772 61.523,125.603 61.291,125.793 61.217 C 125.984 61.143,126.295 61.051,126.486 61.012 C 126.676 60.973,127.767 60.689,128.909 60.382 C 130.052 60.075,131.143 59.788,131.333 59.744 C 131.523 59.701,131.731 59.612,131.795 59.546 C 131.909 59.428,134.649 58.679,139.065 57.559 C 140.335 57.237,141.529 56.910,141.720 56.833 C 141.910 56.755,142.170 56.682,142.297 56.672 C 142.424 56.661,142.631 56.589,142.758 56.510 C 142.885 56.432,143.872 56.190,144.951 55.973 C 146.030 55.756,147.017 55.494,147.144 55.391 C 147.271 55.288,147.426 55.202,147.490 55.199 C 147.553 55.196,147.761 55.144,147.952 55.083 C 148.417 54.934,152.986 53.882,156.261 53.169 C 157.721 52.852,159.071 52.529,159.261 52.452 C 159.452 52.375,159.763 52.283,159.954 52.247 C 163.731 51.541,166.013 51.083,168.379 50.558 C 168.886 50.445,170.444 50.180,171.841 49.968 C 174.656 49.541,174.652 49.542,175.303 49.333 C 175.701 49.205,183.244 48.326,185.228 48.177 C 185.609 48.148,185.972 48.061,186.036 47.983 C 186.761 47.093,215.125 47.105,216.388 47.996 C 216.515 48.085,216.978 48.180,217.417 48.207 C 218.475 48.270,224.597 49.145,224.782 49.259 C 224.862 49.308,225.300 49.407,225.756 49.479 C 226.211 49.551,226.744 49.672,226.941 49.748 C 227.328 49.896,231.205 50.779,231.679 50.827 C 231.838 50.843,231.968 50.925,231.968 51.010 C 231.968 51.094,232.098 51.173,232.256 51.184 C 232.943 51.233,236.204 52.195,238.546 53.040 C 242.840 54.589,243.852 54.994,243.932 55.198 C 243.974 55.307,244.201 55.395,244.437 55.395 C 244.673 55.395,244.923 55.488,244.993 55.601 C 245.063 55.713,245.381 55.871,245.701 55.952 C 246.959 56.267,253.180 59.529,255.535 61.108 C 256.150 61.520,256.709 61.858,256.777 61.858 C 256.845 61.858,257.530 62.299,258.299 62.839 C 260.672 64.505,260.059 64.404,269.592 64.685 C 278.248 64.940,279.149 64.897,278.245 64.271 C 277.992 64.095,277.680 63.870,277.553 63.770 C 277.426 63.671,277.011 63.434,276.630 63.245 C 276.249 63.056,275.418 62.581,274.784 62.191 C 274.149 61.800,273.292 61.345,272.879 61.179 C 272.467 61.014,272.129 60.796,272.129 60.694 C 272.129 60.592,271.771 60.391,271.333 60.246 C 270.895 60.102,270.192 59.756,269.770 59.478 C 269.349 59.200,267.916 58.454,266.585 57.819 C 265.255 57.184,264.114 56.599,264.051 56.518 C 263.987 56.437,263.299 56.103,262.522 55.777 C 261.744 55.450,260.757 54.982,260.329 54.736 C 259.900 54.490,259.290 54.214,258.973 54.122 C 258.656 54.031,258.240 53.825,258.050 53.665 C 257.859 53.505,257.028 53.143,256.203 52.860 C 255.378 52.577,254.495 52.219,254.241 52.066 C 253.987 51.912,253.104 51.543,252.279 51.245 C 251.454 50.947,250.673 50.624,250.543 50.526 C 250.412 50.427,249.789 50.174,249.158 49.963 C 248.526 49.752,247.698 49.439,247.317 49.268 C 246.936 49.097,245.982 48.745,245.198 48.486 C 244.413 48.227,243.249 47.809,242.611 47.558 C 241.974 47.307,240.753 46.939,239.899 46.741 C 239.046 46.543,238.236 46.289,238.100 46.177 C 237.964 46.065,237.178 45.804,236.353 45.597 C 235.528 45.389,234.697 45.157,234.507 45.079 C 234.316 45.002,234.037 44.913,233.886 44.881 C 233.735 44.849,233.267 44.716,232.847 44.586 C 232.427 44.456,231.200 44.179,230.121 43.969 C 229.042 43.760,227.990 43.499,227.782 43.390 C 227.575 43.281,225.965 42.967,224.204 42.693 C 222.444 42.418,220.848 42.133,220.658 42.060 C 220.240 41.898,220.326 41.911,216.734 41.456 C 213.256 41.015,205.617 40.612,201.962 40.676 C 200.502 40.702,198.009 40.748,196.422 40.779 M189.036 49.761 C 188.592 49.808,186.622 49.966,184.659 50.111 C 182.695 50.257,180.930 50.454,180.735 50.550 C 180.540 50.647,178.615 50.944,176.457 51.212 C 171.062 51.881,170.750 51.929,170.225 52.153 C 169.971 52.261,168.465 52.611,166.878 52.930 C 163.586 53.591,159.017 54.619,157.473 55.045 C 157.250 55.106,156.134 55.390,154.991 55.675 C 153.849 55.959,152.862 56.257,152.799 56.336 C 152.735 56.415,152.527 56.491,152.337 56.506 C 151.741 56.551,148.098 57.422,147.432 57.678 C 147.083 57.813,146.797 57.861,146.797 57.785 C 146.797 57.709,146.668 57.755,146.509 57.887 C 146.350 58.018,145.126 58.337,143.789 58.595 C 139.371 59.448,139.361 59.613,143.681 60.366 C 144.824 60.565,145.915 60.791,146.105 60.868 C 146.295 60.945,146.540 60.988,146.649 60.963 C 146.757 60.939,146.965 61.013,147.110 61.128 C 147.256 61.243,148.199 61.518,149.207 61.738 C 150.215 61.959,151.202 62.223,151.400 62.325 C 151.598 62.426,152.695 62.783,153.837 63.118 C 155.992 63.749,157.251 64.234,159.608 65.340 C 160.369 65.697,161.356 66.151,161.800 66.349 C 162.245 66.547,162.926 66.914,163.315 67.165 C 163.831 67.497,164.785 67.697,166.835 67.902 C 168.382 68.057,169.648 68.272,169.648 68.381 C 169.648 68.490,169.727 68.530,169.824 68.470 C 169.920 68.411,171.192 68.506,172.651 68.681 C 174.110 68.857,176.965 69.169,178.996 69.374 C 181.027 69.580,182.949 69.794,183.266 69.849 C 184.048 69.986,195.900 71.094,196.769 71.111 C 197.149 71.119,197.669 71.214,197.923 71.323 C 198.328 71.498,208.474 72.350,212.579 72.555 C 213.405 72.596,214.599 72.703,215.234 72.792 C 219.057 73.331,226.210 73.465,260.012 73.635 C 283.555 73.753,297.207 73.905,298.096 74.059 C 298.857 74.191,301.454 74.464,303.866 74.665 C 307.945 75.004,310.735 75.305,312.406 75.584 C 312.787 75.647,314.916 75.963,317.138 76.284 C 319.359 76.606,321.385 76.965,321.639 77.082 C 321.893 77.199,323.295 77.524,324.755 77.804 C 326.215 78.084,327.592 78.406,327.815 78.519 C 328.038 78.633,329.128 78.969,330.238 79.266 C 332.755 79.941,335.580 80.904,337.147 81.621 C 337.805 81.923,338.459 82.170,338.599 82.170 C 339.174 82.170,345.297 85.550,345.297 85.867 C 345.297 85.975,345.479 86.121,345.701 86.192 C 346.489 86.445,348.845 88.651,350.425 90.617 C 352.612 93.337,354.965 97.463,355.732 99.921 C 355.894 100.441,356.091 100.866,356.169 100.866 C 356.247 100.866,356.548 101.748,356.838 102.827 C 357.510 105.327,358.224 105.423,357.697 102.943 C 357.629 102.626,357.452 101.680,357.303 100.842 C 356.700 97.450,353.336 89.692,352.010 88.632 C 351.931 88.569,351.740 88.231,351.587 87.882 C 351.434 87.533,351.202 87.248,351.072 87.248 C 350.943 87.248,350.837 87.136,350.837 87.000 C 350.837 86.864,350.707 86.616,350.548 86.448 C 350.389 86.281,349.896 85.702,349.452 85.163 C 348.401 83.887,346.500 81.939,346.306 81.939 C 346.222 81.939,345.831 81.634,345.437 81.262 C 343.996 79.903,342.529 78.739,342.072 78.594 C 341.815 78.512,341.604 78.345,341.604 78.223 C 341.604 78.101,341.422 77.934,341.200 77.853 C 340.978 77.772,340.225 77.343,339.527 76.899 C 337.885 75.856,332.017 73.042,331.044 72.832 C 330.632 72.743,330.294 72.574,330.294 72.457 C 330.294 72.340,330.216 72.261,330.121 72.281 C 330.026 72.301,329.792 72.256,329.602 72.180 C 329.275 72.050,326.058 71.120,325.563 71.012 C 325.436 70.985,325.220 70.892,325.083 70.807 C 324.947 70.721,323.648 70.413,322.198 70.122 C 320.748 69.831,319.510 69.541,319.446 69.476 C 319.221 69.249,312.107 68.321,310.589 68.321 C 310.044 68.321,309.532 68.254,309.450 68.173 C 309.170 67.893,274.698 66.960,264.028 66.945 L 258.119 66.936 257.163 66.244 C 256.637 65.863,256.102 65.551,255.974 65.551 C 255.846 65.551,255.741 65.454,255.741 65.336 C 255.741 65.217,255.560 65.062,255.338 64.989 C 254.831 64.825,251.841 62.950,251.298 62.456 C 251.076 62.254,250.894 62.138,250.894 62.197 C 250.894 62.257,250.516 62.049,250.054 61.736 C 249.592 61.422,249.106 61.166,248.973 61.166 C 248.840 61.166,248.517 60.977,248.255 60.747 C 247.993 60.516,247.311 60.130,246.740 59.888 C 246.168 59.645,245.649 59.385,245.586 59.308 C 245.424 59.113,241.609 57.242,241.373 57.242 C 241.266 57.242,240.431 56.895,239.516 56.472 C 238.602 56.049,237.334 55.565,236.699 55.398 C 236.065 55.230,235.441 55.015,235.314 54.919 C 235.188 54.824,234.185 54.485,233.087 54.168 C 231.989 53.850,230.899 53.492,230.664 53.373 C 230.429 53.253,229.250 52.962,228.044 52.727 C 226.838 52.491,225.799 52.242,225.736 52.173 C 225.672 52.105,225.516 52.032,225.389 52.013 C 225.263 51.993,224.276 51.818,223.197 51.623 C 220.117 51.067,217.589 50.706,217.023 50.741 C 216.737 50.759,216.503 50.689,216.503 50.585 C 216.503 50.017,193.221 49.318,189.036 49.761 M40.255 147.664 C 40.116 147.759,39.933 148.117,39.849 148.461 C 39.765 148.804,39.576 149.375,39.429 149.730 C 39.282 150.085,39.147 150.427,39.128 150.490 C 38.966 151.051,37.686 154.815,36.931 156.953 C 36.415 158.413,35.731 160.475,35.411 161.534 C 35.091 162.594,34.729 163.633,34.608 163.842 C 34.377 164.240,33.328 167.305,32.543 169.874 C 32.291 170.697,31.937 171.684,31.756 172.067 C 31.575 172.450,31.355 173.050,31.268 173.399 L 31.110 174.033 35.809 174.030 C 41.347 174.026,40.848 174.257,41.530 171.379 C 41.831 170.110,42.165 168.915,42.272 168.725 C 42.378 168.534,42.725 167.340,43.043 166.070 C 44.029 162.124,44.500 160.795,44.526 161.887 C 44.538 162.379,44.698 163.729,44.883 164.888 C 45.068 166.046,45.377 168.481,45.572 170.299 C 46.009 174.395,45.672 174.033,49.058 174.033 L 51.927 174.033 52.712 172.360 C 53.144 171.440,53.568 170.453,53.654 170.167 C 53.740 169.882,53.908 169.648,54.026 169.648 C 54.144 169.648,54.241 169.547,54.241 169.423 C 54.241 169.299,54.746 168.130,55.363 166.826 C 55.980 165.522,56.559 164.221,56.648 163.935 C 56.738 163.650,56.900 163.416,57.008 163.416 C 57.116 163.416,57.275 163.097,57.361 162.708 C 57.446 162.319,57.662 161.721,57.840 161.381 L 58.165 160.762 58.124 161.454 C 58.101 161.835,58.029 162.248,57.962 162.372 C 57.896 162.496,57.815 162.963,57.781 163.411 C 57.634 165.355,57.242 172.505,57.242 173.233 L 57.242 174.033 61.937 174.033 L 66.633 174.033 66.794 168.667 C 66.883 165.716,67.012 159.743,67.080 155.395 L 67.204 147.490 62.211 147.490 L 57.218 147.490 56.880 148.240 C 56.694 148.653,56.452 149.146,56.341 149.336 C 56.230 149.527,55.654 150.721,55.062 151.991 C 54.470 153.260,53.745 154.766,53.450 155.338 C 53.155 155.909,52.786 156.776,52.629 157.264 C 52.472 157.752,52.200 158.428,52.025 158.764 C 51.849 159.101,51.692 159.533,51.677 159.723 C 51.643 160.129,51.151 156.240,50.595 151.183 L 50.202 147.605 45.355 147.549 C 42.689 147.517,40.394 147.569,40.255 147.664 M69.854 147.668 C 69.741 147.850,70.731 153.524,70.988 154.172 C 71.066 154.369,71.428 156.036,71.793 157.877 C 72.158 159.717,72.833 162.989,73.293 165.147 C 73.753 167.305,74.314 170.070,74.540 171.292 C 74.766 172.513,75.023 173.630,75.111 173.773 C 75.222 173.952,76.668 174.033,79.728 174.033 L 84.183 174.033 84.946 172.591 C 85.365 171.797,85.789 171.094,85.887 171.028 C 85.984 170.962,86.274 170.443,86.531 169.874 C 86.788 169.305,87.330 168.269,87.736 167.571 C 88.141 166.872,88.887 165.522,89.394 164.570 C 89.900 163.618,90.443 162.683,90.600 162.493 C 90.757 162.302,90.957 161.913,91.044 161.629 C 91.131 161.344,91.325 160.980,91.475 160.821 C 91.625 160.661,92.089 159.856,92.505 159.031 C 93.627 156.805,94.485 155.237,94.652 155.107 C 94.734 155.043,95.100 154.368,95.467 153.606 C 95.833 152.845,96.299 152.037,96.502 151.812 C 96.706 151.586,97.008 150.989,97.175 150.484 C 97.341 149.980,97.542 149.567,97.621 149.567 C 97.701 149.567,97.953 149.250,98.182 148.863 C 98.984 147.505,98.871 147.474,93.314 147.543 L 88.289 147.605 87.541 149.106 C 87.130 149.931,86.572 151.151,86.301 151.818 C 86.031 152.484,85.717 153.029,85.605 153.029 C 85.493 153.029,85.401 153.166,85.401 153.332 C 85.401 153.499,85.155 154.148,84.854 154.775 C 84.553 155.402,84.098 156.382,83.844 156.953 C 83.589 157.525,83.146 158.511,82.860 159.146 C 82.574 159.781,82.202 160.664,82.034 161.108 L 81.728 161.916 81.688 160.531 C 81.636 158.741,81.574 158.072,81.420 157.646 C 81.351 157.455,81.074 155.183,80.804 152.596 C 80.535 150.009,80.258 147.802,80.189 147.691 C 80.036 147.443,70.007 147.420,69.854 147.668 M99.401 147.663 C 99.327 147.783,99.202 148.338,99.124 148.897 C 99.045 149.456,98.923 150.069,98.852 150.260 C 98.782 150.450,98.698 150.762,98.666 150.952 C 98.634 151.143,98.342 152.960,98.017 154.991 C 97.691 157.023,97.361 158.944,97.282 159.261 C 97.130 159.876,96.045 166.139,95.923 167.109 C 95.882 167.426,95.790 167.842,95.716 168.032 C 95.584 168.376,94.864 173.202,94.864 173.748 C 94.864 173.966,96.010 174.033,99.674 174.033 L 104.483 174.033 104.851 172.475 C 105.053 171.619,105.348 169.905,105.506 168.667 L 105.792 166.417 107.813 166.417 C 115.338 166.417,119.437 163.732,120.312 158.229 C 120.464 157.274,120.643 156.492,120.710 156.492 C 121.093 156.492,120.541 152.296,120.003 151.115 C 119.635 150.307,117.915 148.978,116.708 148.569 C 116.183 148.391,115.389 148.111,114.945 147.947 C 113.956 147.580,99.613 147.319,99.401 147.663 M110.018 155.479 C 111.374 155.997,111.637 157.478,110.548 158.464 C 109.868 159.080,107.003 159.246,107.169 158.660 C 107.346 158.038,107.618 156.696,107.687 156.101 C 107.817 154.993,108.363 154.847,110.018 155.479 " stroke="none" fill="#bc1c2c" fill-rule="evenodd"></path><path id="path1" d="M98.534 65.205 C 98.102 65.523,97.568 65.847,97.346 65.925 C 96.723 66.143,96.865 66.888,97.692 67.737 C 98.884 68.960,99.250 69.387,99.250 69.557 C 99.250 69.644,99.504 70.117,99.814 70.609 C 101.384 73.095,101.511 77.798,100.098 81.116 C 99.251 83.105,97.584 86.199,97.255 86.393 C 97.083 86.495,96.942 86.696,96.942 86.841 C 96.942 88.221,88.300 96.942,86.932 96.942 C 86.746 96.942,86.558 97.048,86.515 97.179 C 86.468 97.319,86.043 97.226,85.468 96.948 C 84.936 96.691,84.411 96.480,84.302 96.480 C 84.193 96.480,83.901 96.292,83.654 96.062 C 83.407 95.832,82.583 95.350,81.822 94.992 C 81.061 94.634,80.387 94.269,80.323 94.181 C 80.260 94.093,79.585 93.774,78.823 93.472 C 78.061 93.170,77.333 92.849,77.205 92.758 C 75.503 91.547,65.782 91.595,65.782 92.814 C 65.782 92.923,65.416 93.164,64.970 93.351 C 64.195 93.675,61.166 96.543,61.166 96.953 C 61.166 97.061,60.906 97.429,60.589 97.771 C 60.271 98.114,60.012 98.529,60.012 98.695 C 60.012 98.861,59.874 99.079,59.707 99.181 C 59.539 99.282,59.154 99.885,58.852 100.519 C 58.550 101.154,58.064 101.932,57.772 102.248 C 57.480 102.564,57.241 102.928,57.239 103.056 C 57.238 103.184,56.745 103.787,56.143 104.396 C 54.521 106.036,54.204 106.300,53.318 106.751 C 52.874 106.977,52.458 107.240,52.395 107.335 C 51.633 108.480,45.856 108.463,44.529 107.313 C 44.246 107.068,43.875 106.867,43.705 106.867 C 43.534 106.867,42.629 106.140,41.693 105.251 C 39.804 103.456,39.700 103.400,39.700 104.184 C 39.700 105.983,42.410 108.955,44.836 109.817 C 45.439 110.031,45.932 110.286,45.932 110.383 C 45.932 110.480,47.230 110.560,48.817 110.560 C 50.587 110.560,51.702 110.470,51.702 110.329 C 51.702 110.202,51.943 110.098,52.237 110.098 C 52.982 110.098,56.124 109.254,56.294 109.008 C 56.371 108.897,56.914 108.602,57.502 108.352 C 58.711 107.838,59.571 107.269,60.536 106.347 C 60.902 105.998,61.281 105.713,61.378 105.713 C 61.558 105.713,63.829 103.382,64.865 102.135 C 65.361 101.537,67.106 100.031,68.782 98.753 C 69.056 98.544,70.026 98.146,70.936 97.870 C 71.846 97.594,72.771 97.272,72.992 97.155 C 73.469 96.901,77.553 96.865,77.555 97.115 C 77.556 97.210,78.187 97.484,78.957 97.724 C 79.727 97.964,80.583 98.349,80.859 98.580 C 81.136 98.810,81.861 99.418,82.471 99.931 C 84.941 102.007,90.825 101.767,92.328 99.528 C 92.644 99.058,93.136 98.414,93.422 98.098 C 93.707 97.782,93.941 97.407,93.941 97.264 C 93.941 97.121,94.183 96.757,94.479 96.454 C 94.776 96.151,95.217 95.549,95.460 95.117 C 95.704 94.685,96.111 94.097,96.365 93.811 C 96.619 93.525,97.118 92.892,97.474 92.404 C 98.839 90.537,100.217 88.718,100.818 87.992 C 101.422 87.261,101.760 86.867,103.590 84.768 C 104.335 83.914,106.178 82.035,108.332 79.934 C 108.693 79.582,109.290 79.167,109.659 79.012 C 110.027 78.857,110.329 78.636,110.329 78.522 C 110.329 78.407,111.238 78.021,112.349 77.662 C 113.459 77.304,114.420 76.940,114.484 76.853 C 114.614 76.675,119.281 75.707,120.011 75.707 C 120.272 75.707,120.485 75.620,120.485 75.515 C 120.485 75.045,135.272 74.153,138.335 74.438 C 140.825 74.669,140.448 73.942,137.677 73.169 C 136.536 72.851,135.486 72.515,135.344 72.422 C 134.880 72.121,129.412 71.321,127.813 71.321 C 126.928 71.321,126.255 71.222,126.255 71.091 C 126.255 70.953,125.375 70.860,124.076 70.860 C 122.872 70.860,121.833 70.963,121.754 71.091 C 121.676 71.218,120.828 71.321,119.871 71.321 C 118.913 71.321,116.648 71.439,114.838 71.583 C 111.423 71.854,109.152 71.726,108.655 71.233 C 108.497 71.076,108.055 70.791,107.675 70.600 C 106.000 69.759,105.053 68.959,103.609 67.165 C 101.340 64.345,100.265 63.930,98.534 65.205 M164.570 73.841 C 164.570 74.225,161.756 77.323,161.407 77.323 C 161.304 77.323,160.960 77.562,160.644 77.856 C 160.327 78.149,159.446 78.682,158.684 79.041 C 157.923 79.399,157.248 79.766,157.184 79.855 C 157.075 80.007,156.157 80.290,154.077 80.811 C 153.574 80.937,153.054 81.130,152.920 81.241 C 152.787 81.352,151.121 81.680,149.218 81.971 C 147.316 82.261,145.707 82.563,145.643 82.642 C 145.506 82.813,139.280 83.503,136.180 83.691 C 132.485 83.915,132.546 84.371,136.368 85.079 C 137.597 85.307,138.656 85.561,138.719 85.643 C 138.782 85.725,140.029 86.035,141.489 86.332 C 142.949 86.629,144.195 86.939,144.259 87.020 C 144.322 87.102,145.776 87.464,147.490 87.825 C 149.204 88.186,150.658 88.555,150.721 88.644 C 150.785 88.734,151.979 89.048,153.376 89.342 C 154.772 89.635,155.967 89.946,156.030 90.032 C 156.093 90.118,157.184 90.422,158.454 90.707 C 159.723 90.993,160.866 91.306,160.992 91.403 C 161.119 91.500,162.470 91.866,163.993 92.216 C 165.516 92.566,166.815 92.929,166.878 93.023 C 166.942 93.117,168.136 93.434,169.533 93.727 C 170.929 94.021,172.124 94.336,172.188 94.427 C 172.253 94.519,173.863 94.831,175.766 95.120 C 177.669 95.410,179.279 95.719,179.342 95.809 C 179.463 95.979,187.570 96.942,188.880 96.942 C 189.296 96.942,189.735 97.033,189.856 97.145 C 190.381 97.630,205.042 98.315,215.003 98.319 C 224.282 98.323,237.351 97.675,237.738 97.192 C 237.802 97.113,239.512 96.812,241.539 96.524 C 243.565 96.236,245.279 95.922,245.347 95.827 C 245.415 95.732,246.613 95.406,248.009 95.104 C 249.406 94.801,250.600 94.484,250.664 94.399 C 250.727 94.314,251.766 94.004,252.972 93.710 C 254.178 93.417,255.216 93.108,255.280 93.025 C 255.343 92.941,256.374 92.596,257.571 92.258 C 258.768 91.920,259.807 91.561,259.879 91.461 C 259.952 91.362,260.790 91.034,261.741 90.733 C 262.692 90.432,263.679 90.060,263.934 89.908 C 264.188 89.755,264.994 89.436,265.724 89.199 C 266.454 88.962,267.051 88.693,267.051 88.603 C 267.051 88.512,267.441 88.316,267.917 88.167 C 269.055 87.812,273.146 85.833,273.245 85.590 C 273.287 85.486,273.469 85.401,273.649 85.401 C 273.829 85.401,273.976 85.297,273.976 85.170 C 273.976 84.776,270.581 85.169,269.937 85.637 C 269.810 85.730,268.304 86.033,266.590 86.312 C 264.876 86.591,263.316 86.901,263.122 87.002 C 262.929 87.103,261.060 87.431,258.968 87.730 C 256.876 88.029,255.113 88.344,255.049 88.429 C 254.986 88.514,252.389 88.859,249.279 89.195 C 246.168 89.531,243.260 89.906,242.816 90.030 C 241.606 90.366,233.259 90.937,227.178 91.100 C 224.227 91.179,221.812 91.331,221.812 91.438 C 221.812 91.717,217.022 91.682,216.849 91.402 C 216.767 91.269,215.518 91.171,213.893 91.169 C 209.523 91.166,200.067 90.434,199.077 90.023 C 198.823 89.917,196.905 89.557,194.814 89.222 C 192.724 88.887,190.958 88.535,190.891 88.440 C 190.823 88.344,189.703 88.018,188.402 87.715 C 187.100 87.412,186.036 87.095,186.036 87.009 C 186.036 86.924,185.335 86.670,184.478 86.446 C 183.621 86.221,182.712 85.911,182.458 85.757 C 182.204 85.603,181.218 85.183,180.265 84.825 C 179.313 84.466,178.482 84.098,178.419 84.008 C 178.355 83.917,177.758 83.610,177.092 83.324 C 176.425 83.039,175.880 82.732,175.880 82.642 C 175.880 82.553,175.366 82.239,174.738 81.944 C 174.109 81.650,173.549 81.295,173.493 81.155 C 173.437 81.015,172.997 80.692,172.514 80.439 C 171.664 79.992,171.260 79.671,169.739 78.232 C 169.344 77.859,168.929 77.552,168.815 77.550 C 168.702 77.547,168.194 77.068,167.686 76.484 C 165.489 73.958,164.570 73.178,164.570 73.841 M316.388 85.327 C 315.658 85.380,315.061 85.508,315.061 85.610 C 315.061 85.713,314.411 85.865,313.618 85.947 C 311.478 86.170,307.576 86.837,307.444 87.002 C 307.380 87.081,306.238 87.387,304.905 87.681 C 303.572 87.976,302.377 88.301,302.250 88.404 C 302.123 88.507,300.983 88.866,299.716 89.203 C 298.449 89.540,297.359 89.897,297.293 89.997 C 297.227 90.097,296.238 90.417,295.095 90.710 C 293.953 91.002,292.966 91.314,292.902 91.402 C 292.839 91.491,291.852 91.802,290.710 92.095 C 289.567 92.387,288.580 92.699,288.517 92.788 C 288.454 92.876,288.142 93.005,287.825 93.073 C 284.806 93.720,283.786 93.982,283.679 94.135 C 283.611 94.234,282.100 94.613,280.323 94.977 C 278.546 95.340,277.040 95.701,276.976 95.778 C 276.848 95.935,271.783 96.948,271.148 96.944 C 270.926 96.943,270.744 97.026,270.744 97.130 C 270.744 97.233,269.160 97.565,267.224 97.867 C 265.289 98.170,263.653 98.486,263.589 98.571 C 263.476 98.721,260.451 99.180,255.857 99.743 C 254.587 99.899,253.497 100.090,253.433 100.169 C 253.311 100.321,250.185 100.679,245.239 101.108 C 243.589 101.252,242.031 101.459,241.777 101.568 C 241.128 101.849,230.883 102.464,223.938 102.639 C 220.727 102.720,218.046 102.874,217.980 102.980 C 217.824 103.234,206.117 103.233,206.117 102.979 C 206.117 102.873,203.442 102.721,200.173 102.642 C 193.263 102.477,182.666 101.852,181.997 101.570 C 181.743 101.464,179.094 101.148,176.111 100.869 C 173.128 100.591,170.588 100.268,170.467 100.152 C 170.099 99.800,169.648 99.918,169.648 100.367 C 169.648 100.666,169.934 100.878,170.612 101.081 C 171.143 101.240,171.792 101.506,172.055 101.672 C 172.318 101.838,173.467 102.200,174.608 102.476 C 175.750 102.752,176.788 103.064,176.916 103.168 C 177.045 103.273,178.240 103.599,179.573 103.894 C 180.906 104.189,182.048 104.498,182.112 104.582 C 182.175 104.665,183.578 104.976,185.228 105.272 C 186.878 105.569,188.280 105.880,188.344 105.964 C 188.407 106.048,190.069 106.345,192.037 106.625 C 194.005 106.904,195.822 107.225,196.076 107.336 C 196.578 107.556,204.127 108.387,207.848 108.631 C 209.117 108.714,210.208 108.856,210.271 108.947 C 210.889 109.825,251.653 109.822,252.279 108.944 C 252.343 108.855,253.537 108.712,254.934 108.626 C 259.456 108.347,267.616 107.544,268.090 107.331 C 268.344 107.217,269.227 107.060,270.052 106.982 C 273.048 106.700,277.103 106.145,277.553 105.956 C 277.807 105.849,279.671 105.531,281.696 105.249 C 283.720 104.967,285.538 104.647,285.735 104.538 C 285.932 104.429,287.128 104.124,288.391 103.861 C 289.655 103.598,290.798 103.296,290.930 103.190 C 291.063 103.085,291.795 102.823,292.556 102.609 C 294.064 102.184,294.814 101.863,298.384 100.112 C 299.686 99.474,300.750 98.863,300.750 98.755 C 300.750 98.646,300.856 98.557,300.986 98.557 C 301.307 98.557,303.129 97.362,303.358 97.002 C 303.460 96.842,303.668 96.709,303.820 96.707 C 303.972 96.705,304.422 96.420,304.819 96.072 C 305.698 95.305,307.580 93.943,308.367 93.505 C 308.684 93.328,309.027 93.042,309.129 92.870 C 309.230 92.697,309.426 92.556,309.565 92.556 C 309.703 92.556,310.311 92.252,310.915 91.880 C 311.519 91.508,312.569 90.969,313.249 90.681 C 313.928 90.393,314.535 90.089,314.599 90.006 C 314.739 89.822,316.720 89.186,317.830 88.968 C 318.275 88.881,318.748 88.722,318.882 88.614 C 319.720 87.944,328.926 87.942,329.366 88.612 C 329.432 88.714,329.902 88.871,330.410 88.962 C 331.513 89.159,333.593 89.839,333.759 90.056 C 333.823 90.142,334.446 90.435,335.141 90.710 C 335.837 90.984,336.459 91.283,336.524 91.374 C 336.589 91.465,337.159 91.839,337.792 92.205 C 338.425 92.571,339.146 93.059,339.394 93.290 C 339.642 93.521,339.951 93.710,340.081 93.710 C 340.211 93.710,340.581 93.967,340.903 94.281 C 342.069 95.418,343.028 96.249,343.180 96.255 C 343.265 96.258,343.855 96.792,344.489 97.440 C 345.770 98.748,346.626 99.383,346.832 99.176 C 347.023 98.985,346.738 97.958,346.393 97.593 C 346.235 97.425,345.861 96.771,345.564 96.140 C 345.266 95.509,344.825 94.854,344.583 94.685 C 344.341 94.515,344.143 94.250,344.143 94.096 C 344.143 93.478,339.895 89.793,338.257 88.989 C 337.750 88.740,337.208 88.413,337.053 88.262 C 336.898 88.111,336.171 87.802,335.437 87.574 C 334.703 87.347,334.051 87.091,333.987 87.005 C 333.836 86.800,331.182 86.142,329.715 85.946 C 329.082 85.861,328.493 85.684,328.407 85.553 C 328.248 85.308,319.005 85.135,316.388 85.327 M125.541 89.096 C 123.537 89.288,121.408 89.785,121.408 90.061 C 121.408 90.164,121.265 90.248,121.091 90.248 C 120.718 90.248,118.575 91.165,118.407 91.396 C 118.344 91.483,117.773 91.806,117.138 92.113 C 116.503 92.420,115.844 92.804,115.672 92.967 C 115.501 93.129,114.985 93.419,114.526 93.610 C 114.067 93.802,113.636 94.038,113.568 94.134 C 113.440 94.315,111.604 95.312,109.406 96.393 C 108.707 96.737,108.079 97.104,108.008 97.209 C 107.883 97.396,106.731 98.038,103.982 99.453 C 100.825 101.078,97.747 102.758,97.637 102.917 C 97.572 103.011,96.922 103.326,96.192 103.619 C 95.462 103.911,94.864 104.232,94.864 104.331 C 94.864 104.431,94.423 104.737,93.883 105.013 C 92.814 105.559,90.248 108.107,90.248 108.623 C 90.248 108.800,90.143 108.944,90.014 108.944 C 89.886 108.944,89.553 109.411,89.276 109.983 C 88.998 110.554,88.706 111.021,88.626 111.021 C 88.546 111.021,88.229 111.564,87.922 112.228 C 87.614 112.892,87.181 113.619,86.959 113.844 C 86.737 114.069,86.555 114.356,86.555 114.481 C 86.555 114.817,84.482 117.798,84.093 118.022 C 83.910 118.128,83.664 118.467,83.546 118.776 C 83.428 119.086,83.081 119.434,82.774 119.551 C 82.467 119.668,82.076 119.958,81.904 120.196 C 81.733 120.434,81.073 120.875,80.439 121.175 C 79.804 121.476,79.233 121.794,79.169 121.882 C 78.590 122.683,72.388 122.735,71.807 121.944 C 71.730 121.840,71.177 121.523,70.577 121.241 C 69.216 120.600,69.284 120.656,65.666 117.172 C 60.350 112.052,59.905 111.797,56.665 112.015 C 54.833 112.138,52.626 112.734,52.626 113.104 C 52.626 113.210,52.184 113.523,51.645 113.800 C 50.131 114.575,47.226 118.103,46.947 119.504 C 46.734 120.574,46.979 120.456,49.010 118.518 C 50.004 117.568,50.899 116.792,50.998 116.792 C 51.097 116.792,51.426 116.550,51.728 116.255 C 54.174 113.871,55.738 114.383,60.566 119.149 C 63.825 122.367,65.720 124.104,66.381 124.478 C 66.560 124.580,66.982 124.918,67.317 125.229 C 67.652 125.539,68.071 125.793,68.246 125.793 C 68.422 125.793,68.624 125.945,68.696 126.131 C 68.767 126.316,69.048 126.539,69.321 126.626 C 69.594 126.712,70.493 127.104,71.319 127.497 C 74.047 128.793,79.967 128.065,81.246 126.277 C 81.310 126.188,81.754 125.877,82.232 125.586 C 83.637 124.733,88.363 120.240,90.178 118.034 C 90.583 117.541,91.338 116.619,91.855 115.984 C 92.372 115.349,93.053 114.569,93.368 114.250 C 93.683 113.932,93.941 113.581,93.941 113.471 C 93.941 112.560,97.865 109.887,99.942 109.383 C 100.641 109.213,101.265 109.002,101.329 108.913 C 101.502 108.674,105.742 108.241,106.347 108.400 C 106.853 108.533,106.867 108.618,106.866 111.568 C 106.866 114.731,107.257 118.407,107.594 118.407 C 107.702 118.407,107.790 118.586,107.790 118.805 C 107.790 119.308,108.749 122.408,108.953 122.562 C 109.037 122.626,109.395 123.327,109.749 124.120 C 110.103 124.913,110.475 125.563,110.576 125.563 C 110.677 125.563,110.828 125.779,110.912 126.044 C 111.203 126.961,115.646 131.564,116.240 131.564 C 116.425 131.564,116.636 131.722,116.711 131.916 C 116.829 132.226,118.983 133.410,119.427 133.410 C 119.519 133.410,119.750 133.566,119.941 133.756 C 120.240 134.056,121.408 134.261,121.408 134.014 C 121.408 133.966,120.228 132.745,118.786 131.302 C 117.345 129.859,115.930 128.218,115.644 127.654 C 115.357 127.091,114.988 126.496,114.824 126.331 C 114.659 126.167,114.339 125.537,114.112 124.932 C 113.885 124.327,113.628 123.780,113.540 123.716 C 113.346 123.575,112.496 120.715,112.272 119.446 C 112.182 118.938,111.994 118.449,111.854 118.358 C 111.513 118.138,111.497 108.767,111.837 108.532 C 111.968 108.441,112.206 107.716,112.366 106.920 C 112.714 105.190,113.356 103.105,113.592 102.938 C 113.686 102.872,113.983 102.303,114.253 101.673 C 114.523 101.044,114.815 100.475,114.902 100.409 C 114.989 100.343,115.313 99.821,115.622 99.250 C 115.931 98.679,116.373 98.075,116.603 97.910 C 116.834 97.744,117.023 97.504,117.023 97.377 C 117.023 97.068,120.370 93.710,120.678 93.710 C 120.811 93.710,121.056 93.523,121.222 93.294 C 121.659 92.691,124.906 91.006,126.441 90.587 C 127.164 90.390,127.939 90.126,128.164 90.002 C 128.389 89.878,129.038 89.713,129.607 89.635 C 130.986 89.446,130.913 89.191,129.429 89.013 C 128.099 88.853,128.066 88.854,125.541 89.096 M324.755 89.986 C 324.755 90.096,324.279 90.251,323.697 90.330 C 322.595 90.481,318.974 92.189,317.709 93.154 C 317.307 93.460,316.864 93.710,316.724 93.710 C 316.583 93.710,316.385 93.840,316.284 94.000 C 316.182 94.159,315.488 94.704,314.741 95.211 C 313.994 95.719,313.154 96.290,312.875 96.480 C 312.596 96.671,312.185 97.010,311.961 97.236 C 311.738 97.461,311.253 97.801,310.884 97.992 C 310.515 98.182,310.214 98.442,310.214 98.569 C 310.214 98.696,309.980 98.890,309.694 99.000 C 309.409 99.110,308.656 99.554,308.021 99.987 C 307.386 100.421,305.932 101.231,304.789 101.789 C 303.647 102.346,302.660 102.868,302.597 102.948 C 302.533 103.028,301.754 103.343,300.866 103.649 C 299.977 103.954,299.198 104.274,299.134 104.360 C 299.070 104.447,298.031 104.809,296.825 105.165 C 295.620 105.521,294.582 105.875,294.518 105.950 C 294.455 106.026,293.364 106.330,292.095 106.627 C 290.825 106.923,289.734 107.245,289.670 107.342 C 289.606 107.438,288.100 107.759,286.324 108.054 C 284.547 108.349,283.041 108.653,282.977 108.730 C 282.914 108.807,280.473 109.153,277.553 109.498 C 274.634 109.844,272.089 110.208,271.898 110.309 C 271.708 110.409,269.059 110.725,266.013 111.011 C 262.966 111.297,260.265 111.617,260.012 111.723 C 259.474 111.947,250.872 112.569,245.355 112.783 C 243.260 112.864,241.409 113.040,241.240 113.173 C 240.815 113.510,215.148 113.515,214.929 113.179 C 214.841 113.043,213.362 112.872,211.541 112.788 C 207.025 112.578,199.100 111.904,198.961 111.719 C 198.898 111.634,196.872 111.326,194.460 111.036 C 192.048 110.745,190.023 110.433,189.960 110.342 C 189.896 110.250,189.065 110.052,188.113 109.902 C 185.040 109.416,182.230 108.860,182.112 108.714 C 182.048 108.636,180.855 108.336,179.459 108.047 C 178.064 107.758,176.870 107.446,176.805 107.354 C 176.741 107.263,175.705 106.954,174.504 106.669 C 173.303 106.383,172.212 106.061,172.080 105.952 C 171.949 105.844,170.920 105.489,169.794 105.163 C 168.669 104.837,167.630 104.477,167.486 104.362 C 167.342 104.247,166.553 103.911,165.733 103.615 C 164.913 103.319,164.056 102.891,163.829 102.663 C 163.602 102.436,163.273 102.250,163.097 102.250 C 162.624 102.250,158.309 98.899,156.635 97.230 C 156.221 96.818,155.777 96.480,155.650 96.480 C 155.522 96.480,155.182 96.229,154.893 95.922 C 154.605 95.615,153.834 95.134,153.180 94.854 C 152.526 94.574,151.939 94.279,151.875 94.199 C 151.725 94.010,150.466 93.599,148.875 93.220 C 148.177 93.054,147.553 92.851,147.490 92.769 C 146.639 91.673,132.113 91.643,131.350 92.736 C 131.277 92.840,130.565 93.119,129.767 93.356 C 128.969 93.594,127.988 94.030,127.587 94.326 C 127.186 94.622,126.737 94.864,126.590 94.864 C 126.443 94.864,126.042 95.124,125.700 95.441 C 125.357 95.759,124.965 96.018,124.828 96.018 C 124.404 96.018,120.133 100.514,119.709 101.407 C 119.489 101.871,119.223 102.250,119.117 102.250 C 119.012 102.250,118.692 102.874,118.407 103.635 C 118.123 104.397,117.817 105.020,117.729 105.020 C 117.520 105.020,116.855 107.155,116.651 108.482 C 116.563 109.054,116.378 109.595,116.239 109.685 C 115.929 109.886,115.887 117.149,116.192 117.830 C 116.306 118.084,116.643 119.227,116.942 120.369 C 117.241 121.512,117.589 122.481,117.716 122.524 C 117.842 122.566,117.946 122.715,117.946 122.855 C 117.946 123.257,118.922 125.172,119.378 125.664 C 119.606 125.910,119.792 126.232,119.792 126.380 C 119.792 127.185,125.135 132.090,127.071 133.062 C 127.574 133.315,128.038 133.584,128.102 133.660 C 128.165 133.736,128.944 134.048,129.833 134.354 C 130.721 134.660,131.502 134.981,131.568 135.068 C 132.314 136.052,144.489 136.023,144.489 135.037 C 144.489 134.941,145.170 134.679,146.002 134.454 C 146.834 134.229,147.639 133.928,147.791 133.784 C 147.943 133.641,148.619 133.270,149.293 132.959 C 149.967 132.649,150.591 132.284,150.678 132.150 C 150.765 132.015,151.382 131.655,152.048 131.349 C 152.715 131.043,153.260 130.716,153.260 130.624 C 153.260 130.531,153.546 130.349,153.895 130.220 C 154.244 130.091,154.893 129.666,155.338 129.275 C 155.782 128.883,156.475 128.406,156.877 128.215 C 157.279 128.023,157.643 127.784,157.685 127.684 C 157.831 127.334,161.002 125.877,162.493 125.475 C 163.318 125.252,164.305 124.935,164.686 124.770 C 165.066 124.604,166.520 124.281,167.917 124.051 C 169.313 123.821,170.508 123.563,170.571 123.478 C 170.737 123.255,176.048 122.621,180.496 122.292 C 182.591 122.138,184.379 121.902,184.470 121.767 C 184.704 121.421,222.500 121.490,222.715 121.837 C 222.823 122.012,232.638 122.105,255.981 122.151 L 289.094 122.218 291.633 122.775 C 293.029 123.082,294.224 123.408,294.287 123.501 C 294.351 123.593,295.156 123.897,296.076 124.177 C 296.997 124.456,297.750 124.778,297.750 124.893 C 297.750 125.007,297.885 125.101,298.050 125.101 C 298.478 125.101,302.883 127.399,303.167 127.771 C 303.298 127.941,303.664 128.189,303.982 128.321 C 304.883 128.697,305.620 129.234,307.405 130.813 C 307.871 131.224,308.325 131.562,308.415 131.563 C 308.505 131.563,308.817 131.809,309.108 132.109 C 309.399 132.409,309.991 132.850,310.424 133.090 C 310.857 133.330,311.469 133.759,311.785 134.045 C 312.100 134.331,312.483 134.564,312.635 134.564 C 312.788 134.564,313.152 134.772,313.445 135.026 C 313.738 135.280,314.069 135.488,314.182 135.488 C 314.295 135.488,315.056 135.800,315.873 136.182 C 317.467 136.927,320.073 137.565,321.525 137.565 C 322.017 137.565,322.484 137.669,322.562 137.796 C 322.735 138.075,325.447 138.108,325.447 137.831 C 325.447 137.723,326.460 137.572,327.698 137.496 C 329.873 137.362,332.691 136.851,333.641 136.419 C 333.895 136.303,334.804 135.980,335.661 135.701 C 336.518 135.423,337.219 135.122,337.219 135.032 C 337.219 134.943,337.803 134.671,338.518 134.429 C 339.232 134.186,339.866 133.857,339.927 133.699 C 339.988 133.540,340.162 133.410,340.315 133.410 C 341.940 133.410,343.655 129.797,342.239 129.355 C 341.953 129.266,341.668 129.122,341.604 129.035 C 341.541 128.948,339.827 128.632,337.796 128.332 C 335.765 128.033,334.051 127.716,333.987 127.629 C 333.924 127.542,332.184 127.228,330.121 126.932 C 328.058 126.635,326.370 126.310,326.370 126.209 C 326.370 126.107,326.207 126.024,326.008 126.024 C 325.449 126.024,323.601 124.865,323.601 124.515 C 323.601 124.344,323.403 124.065,323.162 123.896 C 322.734 123.597,321.754 121.047,321.754 120.235 C 321.754 120.013,321.646 119.795,321.514 119.751 C 321.219 119.652,321.182 114.699,321.475 114.503 C 321.586 114.429,321.875 113.598,322.116 112.657 C 322.358 111.716,322.661 110.833,322.789 110.695 C 322.918 110.557,323.276 109.977,323.585 109.406 C 323.894 108.834,324.336 108.231,324.566 108.065 C 324.797 107.900,324.986 107.628,324.986 107.463 C 324.986 105.751,329.501 104.318,332.718 105.007 C 333.226 105.116,334.264 105.337,335.026 105.498 C 335.788 105.658,336.463 105.866,336.526 105.959 C 336.590 106.052,337.732 106.360,339.065 106.642 C 340.398 106.924,341.593 107.234,341.720 107.332 C 342.650 108.045,347.842 108.674,348.377 108.139 C 349.090 107.427,348.717 105.058,347.715 103.924 C 345.631 101.568,344.955 100.844,343.068 98.949 C 340.723 96.593,339.500 95.509,338.409 94.819 C 338.008 94.565,337.680 94.282,337.680 94.190 C 337.680 94.098,337.213 93.790,336.642 93.504 C 336.070 93.219,335.603 92.902,335.603 92.799 C 335.603 92.696,335.265 92.476,334.853 92.309 C 334.440 92.142,333.724 91.760,333.261 91.459 C 332.793 91.154,331.542 90.733,330.442 90.511 C 329.354 90.290,328.391 90.037,328.302 89.948 C 328.067 89.714,324.755 89.749,324.755 89.986 M139.312 98.583 C 139.771 99.326,141.964 99.942,144.150 99.942 C 145.352 99.942,146.336 100.039,146.336 100.157 C 146.336 100.275,146.480 100.516,146.657 100.692 C 146.834 100.869,147.246 101.541,147.573 102.186 C 148.172 103.368,149.131 104.328,149.714 104.328 C 149.887 104.328,150.029 104.420,150.029 104.533 C 150.029 104.646,150.496 104.958,151.068 105.227 L 152.106 105.715 152.106 107.871 C 152.106 109.685,152.178 110.111,152.561 110.552 C 152.811 110.840,153.086 111.298,153.172 111.568 C 153.257 111.839,153.573 112.450,153.874 112.926 C 154.174 113.402,154.334 113.791,154.229 113.791 C 154.124 113.791,153.740 114.414,153.376 115.176 C 153.012 115.938,152.629 116.561,152.525 116.561 C 152.422 116.561,152.337 117.581,152.337 118.827 C 152.337 121.422,152.231 121.597,150.050 122.597 C 149.401 122.895,148.812 123.320,148.742 123.542 C 148.671 123.763,148.485 124.075,148.328 124.234 C 148.171 124.393,147.796 125.043,147.494 125.678 C 146.776 127.187,146.812 127.171,144.212 127.175 C 142.607 127.177,141.921 127.265,141.789 127.483 C 141.687 127.651,141.085 128.033,140.450 128.333 C 139.815 128.632,139.218 128.989,139.123 129.124 C 139.006 129.291,138.894 129.295,138.777 129.135 C 138.681 129.005,138.087 128.641,137.455 128.327 C 136.824 128.012,136.167 127.626,135.996 127.467 C 135.796 127.281,134.933 127.176,133.567 127.171 C 131.151 127.163,130.997 127.084,130.185 125.445 C 129.507 124.078,128.845 123.431,127.310 122.638 C 125.592 121.751,125.563 121.696,125.563 119.364 C 125.563 117.902,125.468 117.192,125.243 116.967 C 125.067 116.791,124.707 116.222,124.441 115.702 C 124.176 115.182,123.840 114.717,123.693 114.668 C 123.321 114.544,123.361 113.420,123.752 113.029 C 123.931 112.851,124.271 112.274,124.509 111.748 C 124.746 111.221,125.028 110.791,125.136 110.791 C 125.244 110.791,125.332 109.768,125.332 108.518 C 125.332 106.017,125.341 105.997,127.005 105.155 C 127.481 104.914,127.871 104.629,127.871 104.522 C 127.871 104.415,128.024 104.328,128.212 104.328 C 128.399 104.328,128.736 104.042,128.960 103.693 C 129.184 103.344,129.457 102.954,129.567 102.827 C 129.676 102.701,129.989 102.129,130.261 101.558 L 130.756 100.519 132.926 100.453 C 134.637 100.400,135.230 100.290,135.731 99.933 C 136.081 99.684,136.475 99.481,136.608 99.481 C 136.740 99.481,137.129 99.221,137.471 98.904 C 138.121 98.302,139.039 98.142,139.312 98.583 M311.357 107.855 C 310.949 108.176,309.983 110.974,309.983 111.834 C 309.983 112.149,309.879 112.406,309.752 112.406 C 309.468 112.406,309.433 118.334,309.716 118.446 C 309.923 118.528,310.263 120.254,310.072 120.254 C 310.010 120.254,309.575 120.059,309.105 119.820 C 308.636 119.582,307.888 119.217,307.444 119.010 C 306.553 118.594,304.161 118.068,302.020 117.816 C 301.258 117.726,300.583 117.577,300.519 117.485 C 300.261 117.109,292.874 116.745,282.747 116.610 C 276.844 116.531,272.274 116.432,272.591 116.389 C 272.908 116.346,273.376 116.219,273.630 116.107 C 273.883 115.994,275.649 115.672,277.553 115.390 C 279.458 115.108,281.068 114.808,281.131 114.723 C 281.194 114.639,282.701 114.326,284.478 114.028 C 286.255 113.731,287.761 113.416,287.825 113.329 C 287.888 113.241,289.550 112.882,291.518 112.530 C 293.485 112.178,295.200 111.807,295.329 111.704 C 295.457 111.602,296.755 111.290,298.214 111.012 C 299.672 110.734,300.917 110.433,300.981 110.344 C 301.044 110.255,302.239 109.937,303.635 109.636 C 305.032 109.336,306.226 109.022,306.290 108.937 C 306.405 108.784,310.711 107.650,311.368 107.600 C 311.668 107.577,311.667 107.611,311.357 107.855 M164.988 111.366 C 165.861 112.100,169.428 113.866,170.860 114.273 C 171.463 114.444,171.956 114.656,171.956 114.743 C 171.956 114.831,172.969 115.142,174.207 115.436 C 175.444 115.730,176.509 116.033,176.572 116.111 C 176.636 116.188,177.415 116.406,178.304 116.595 L 179.919 116.939 175.192 117.083 C 172.195 117.174,170.435 117.316,170.383 117.471 C 170.339 117.605,169.905 117.715,169.421 117.715 C 168.196 117.715,163.120 118.603,162.966 118.844 C 162.896 118.953,162.501 119.115,162.089 119.205 C 161.238 119.389,161.105 119.103,161.745 118.463 C 161.969 118.239,162.302 117.590,162.486 117.020 C 162.669 116.450,162.903 115.925,163.006 115.853 C 163.259 115.674,163.869 112.726,163.874 111.656 C 163.878 110.638,164.065 110.590,164.988 111.366 M211.012 147.286 C 210.340 147.397,209.013 147.853,208.064 148.297 C 207.114 148.742,206.236 149.106,206.111 149.106 C 205.987 149.106,205.886 149.198,205.886 149.310 C 205.886 149.423,205.519 149.689,205.071 149.901 C 204.623 150.114,204.131 150.489,203.977 150.735 C 203.823 150.982,203.583 151.183,203.444 151.183 C 203.154 151.183,202.096 152.301,201.260 153.491 C 200.948 153.935,200.578 154.373,200.438 154.464 C 200.298 154.555,199.994 155.126,199.762 155.734 C 199.531 156.341,199.218 156.960,199.069 157.110 C 197.624 158.554,197.825 168.417,199.316 169.251 C 199.502 169.355,199.654 169.585,199.654 169.761 C 199.654 170.101,201.416 171.958,202.543 172.805 C 202.910 173.082,203.787 173.487,204.491 173.706 C 205.195 173.925,205.844 174.218,205.935 174.358 C 206.162 174.707,213.314 174.703,213.755 174.354 C 213.934 174.213,214.391 174.027,214.772 173.942 C 215.828 173.704,217.888 172.849,217.888 172.647 C 217.888 172.548,218.130 172.407,218.427 172.333 C 218.723 172.258,219.440 171.780,220.020 171.269 C 220.600 170.758,221.189 170.340,221.328 170.340 C 221.467 170.340,221.582 170.263,221.582 170.167 C 221.583 170.072,221.920 169.613,222.332 169.147 C 222.744 168.682,223.308 168.032,223.585 167.703 C 224.170 167.009,225.274 164.756,225.274 164.257 C 225.274 164.070,225.390 163.877,225.532 163.830 C 226.638 163.462,226.615 153.793,225.506 153.029 C 225.414 152.966,225.167 152.580,224.958 152.172 C 224.625 151.521,223.306 150.072,222.274 149.223 C 222.083 149.066,221.512 148.748,221.004 148.515 C 220.496 148.282,220.022 148.006,219.950 147.903 C 219.469 147.211,213.806 146.820,211.012 147.286 M276.861 147.364 C 275.972 147.525,274.882 147.879,274.437 148.150 C 273.993 148.421,273.467 148.643,273.269 148.643 C 273.071 148.644,272.707 148.826,272.461 149.048 C 272.215 149.270,271.639 149.649,271.180 149.891 C 269.022 151.028,266.033 154.712,265.169 157.299 C 265.000 157.807,264.796 158.275,264.716 158.338 C 263.872 159.010,263.872 168.032,264.716 168.032 C 264.807 168.032,265.011 168.391,265.169 168.829 C 265.541 169.857,266.559 171.080,268.222 172.497 C 268.860 173.041,270.294 173.724,271.206 173.919 C 271.650 174.014,272.088 174.208,272.179 174.351 C 272.424 174.738,279.790 174.710,279.919 174.322 C 279.972 174.163,280.223 174.033,280.476 174.033 C 280.960 174.033,283.933 172.917,284.132 172.661 C 284.195 172.579,284.627 172.292,285.093 172.023 C 286.051 171.468,287.153 170.550,288.080 169.533 C 289.628 167.835,290.133 167.225,290.133 167.053 C 290.133 166.951,290.395 166.472,290.715 165.988 C 291.312 165.087,292.210 162.328,292.210 161.397 C 292.210 161.111,292.314 160.877,292.441 160.877 C 292.581 160.877,292.672 159.877,292.672 158.338 C 292.672 156.799,292.581 155.799,292.441 155.799 C 292.314 155.799,292.210 155.595,292.210 155.346 C 292.210 154.599,291.266 152.263,290.715 151.645 C 290.432 151.327,290.136 150.884,290.057 150.660 C 289.978 150.436,289.649 150.152,289.325 150.029 C 289.001 149.906,288.681 149.663,288.615 149.489 C 288.548 149.316,287.954 148.926,287.294 148.623 C 286.634 148.320,286.027 147.979,285.945 147.865 C 285.425 147.139,279.801 146.829,276.861 147.364 M131.553 148.094 C 131.427 148.426,131.131 148.943,130.896 149.242 C 130.661 149.541,130.228 150.386,129.934 151.119 C 129.640 151.852,129.330 152.504,129.245 152.568 C 129.160 152.631,128.555 153.722,127.901 154.991 C 127.247 156.261,126.630 157.403,126.530 157.530 C 126.431 157.657,126.101 158.280,125.799 158.915 C 125.496 159.550,125.176 160.121,125.088 160.185 C 125.000 160.248,124.691 160.871,124.401 161.570 C 124.111 162.268,123.760 162.943,123.621 163.070 C 123.482 163.197,123.110 163.872,122.795 164.570 C 122.479 165.268,122.156 165.892,122.078 165.955 C 121.999 166.018,121.709 166.586,121.432 167.216 C 121.155 167.846,120.788 168.521,120.617 168.716 C 120.445 168.911,120.065 169.642,119.772 170.340 C 119.479 171.039,119.174 171.662,119.094 171.725 C 118.851 171.917,118.177 173.390,118.177 173.727 C 118.177 173.986,119.114 174.031,123.427 173.980 L 128.677 173.918 128.977 173.002 C 129.142 172.498,129.362 172.031,129.466 171.963 C 129.570 171.896,129.728 171.607,129.817 171.321 C 129.975 170.815,130.062 170.802,133.195 170.802 L 136.411 170.802 136.411 171.712 C 136.411 172.212,136.515 172.686,136.642 172.764 C 136.769 172.842,136.872 173.160,136.872 173.470 L 136.872 174.033 142.098 174.033 L 147.323 174.033 147.164 172.485 C 147.077 171.634,146.922 170.829,146.821 170.697 C 146.719 170.564,146.398 168.794,146.106 166.763 C 145.815 164.732,145.506 163.018,145.418 162.954 C 145.331 162.891,145.021 161.177,144.729 159.146 C 144.437 157.115,144.125 155.349,144.034 155.222 C 143.944 155.095,143.629 153.304,143.333 151.241 L 142.796 147.490 137.290 147.490 L 131.783 147.490 131.553 148.094 M151.533 149.048 C 151.443 149.905,151.291 150.710,151.197 150.837 C 151.103 150.964,150.783 152.781,150.486 154.876 C 150.189 156.971,149.874 158.736,149.786 158.800 C 149.060 159.326,148.720 168.091,149.370 169.533 C 150.265 171.515,153.354 174.022,154.914 174.031 C 155.126 174.032,155.342 174.163,155.395 174.322 C 155.467 174.538,156.474 174.611,159.377 174.611 C 162.280 174.611,163.287 174.538,163.358 174.322 C 163.411 174.163,163.650 174.033,163.888 174.033 C 164.621 174.033,166.778 173.132,167.775 172.410 C 168.295 172.034,168.784 171.725,168.861 171.725 C 169.245 171.725,171.495 168.956,171.495 168.484 C 171.495 168.362,171.586 168.263,171.697 168.263 C 171.926 168.263,172.256 167.489,172.683 165.955 C 172.842 165.384,173.044 164.864,173.132 164.801 C 173.220 164.737,173.518 163.128,173.793 161.223 C 174.068 159.319,174.387 157.553,174.502 157.299 C 174.725 156.804,175.880 149.083,175.880 148.088 L 175.880 147.490 171.051 147.490 L 166.223 147.490 166.062 148.990 C 165.974 149.815,165.831 150.490,165.746 150.490 C 165.660 150.490,165.342 152.308,165.038 154.530 C 164.735 156.751,164.415 158.569,164.327 158.569 C 164.240 158.569,164.095 159.218,164.006 160.012 C 163.733 162.446,163.255 164.354,162.806 164.808 C 162.570 165.046,162.243 165.401,162.080 165.598 C 161.599 166.175,159.832 166.073,159.390 165.442 C 158.880 164.713,159.353 158.127,159.950 157.646 C 160.126 157.504,161.341 149.281,161.340 148.240 L 161.339 147.490 156.519 147.490 L 151.698 147.490 151.533 149.048 M178.420 147.663 C 178.426 148.416,177.425 154.847,177.253 155.161 C 176.601 156.353,176.846 156.492,179.605 156.492 L 182.176 156.492 182.017 158.043 C 181.929 158.897,181.777 159.650,181.678 159.717 C 181.580 159.784,181.260 161.549,180.968 163.640 C 180.676 165.730,180.349 167.600,180.241 167.794 C 180.049 168.141,179.342 172.687,179.342 173.579 C 179.342 174.017,179.521 174.033,184.277 174.033 L 189.211 174.033 189.456 172.360 C 189.591 171.440,189.882 169.388,190.102 167.802 C 190.321 166.215,190.574 164.864,190.663 164.801 C 190.753 164.737,191.062 162.972,191.351 160.877 C 191.999 156.182,191.755 156.492,194.812 156.492 L 197.300 156.492 197.466 155.049 C 197.557 154.256,197.705 153.555,197.793 153.491 C 197.937 153.388,198.740 148.506,198.733 147.778 C 198.731 147.552,196.544 147.490,188.575 147.490 C 182.989 147.490,178.420 147.568,178.420 147.663 M233.836 148.009 C 233.728 148.295,233.452 149.204,233.224 150.029 C 232.996 150.854,232.742 151.581,232.660 151.645 C 232.578 151.708,232.326 152.435,232.100 153.260 C 231.873 154.085,231.494 155.189,231.258 155.714 C 231.021 156.238,230.604 157.484,230.331 158.483 C 230.058 159.483,229.762 160.352,229.674 160.415 C 229.586 160.479,229.272 161.388,228.977 162.435 C 228.683 163.482,228.375 164.339,228.294 164.339 C 228.212 164.339,227.894 165.248,227.587 166.359 C 227.279 167.470,226.957 168.430,226.872 168.494 C 226.786 168.557,226.424 169.648,226.067 170.917 C 225.710 172.187,225.334 173.260,225.231 173.303 C 225.128 173.345,225.043 173.529,225.043 173.711 C 225.043 173.991,225.809 174.033,229.948 173.980 L 234.853 173.918 235.177 172.533 C 235.356 171.771,235.574 171.096,235.663 171.033 C 235.751 170.969,236.066 169.879,236.362 168.609 C 236.659 167.340,236.975 166.249,237.064 166.186 C 237.154 166.122,237.452 165.035,237.725 163.770 C 238.494 160.217,238.444 160.099,239.107 166.994 C 239.401 170.040,239.732 172.632,239.843 172.752 C 239.955 172.873,240.046 173.211,240.046 173.503 C 240.046 174.029,240.070 174.033,243.045 174.033 L 246.043 174.033 246.938 172.129 C 247.431 171.082,248.029 169.732,248.268 169.130 C 248.506 168.527,248.767 168.034,248.847 168.033 C 248.926 168.033,249.231 167.383,249.524 166.590 C 249.818 165.796,250.127 165.095,250.212 165.032 C 250.407 164.887,251.356 162.741,251.356 162.447 C 251.356 162.327,251.489 162.096,251.651 161.934 C 251.985 161.600,251.925 166.095,251.590 166.532 C 251.492 166.659,251.339 168.399,251.249 170.398 L 251.085 174.033 255.926 174.033 L 260.767 174.033 260.912 168.205 C 260.992 165.000,261.081 159.028,261.111 154.934 L 261.166 147.490 256.055 147.490 L 250.945 147.490 250.639 148.529 C 250.470 149.100,250.266 149.567,250.186 149.567 C 250.106 149.567,249.744 150.268,249.382 151.125 C 249.019 151.982,248.610 152.799,248.472 152.940 C 248.334 153.081,248.022 153.782,247.779 154.498 C 247.536 155.214,247.263 155.799,247.172 155.799 C 247.082 155.799,246.777 156.500,246.493 157.357 C 246.210 158.214,245.906 158.967,245.817 159.031 C 245.728 159.094,245.609 159.288,245.554 159.461 C 245.498 159.634,245.263 157.557,245.030 154.845 C 244.798 152.133,244.517 149.879,244.405 149.837 C 244.293 149.794,244.201 149.249,244.201 148.625 L 244.201 147.490 239.117 147.490 C 234.058 147.490,234.033 147.492,233.836 148.009 M295.799 150.202 C 295.587 151.694,295.322 153.084,295.211 153.292 C 295.100 153.499,294.937 154.304,294.849 155.081 L 294.689 156.492 297.258 156.492 L 299.827 156.492 299.827 157.138 C 299.827 157.493,299.737 157.883,299.627 158.003 C 299.517 158.124,299.134 160.300,298.776 162.839 C 298.418 165.378,298.055 167.507,297.969 167.571 C 297.807 167.690,297.053 172.601,297.056 173.514 L 297.057 174.033 301.904 174.033 C 306.608 174.033,306.751 174.020,306.751 173.569 C 306.751 173.313,306.850 172.924,306.971 172.703 C 307.092 172.483,307.418 170.641,307.694 168.609 C 307.971 166.578,308.271 164.864,308.361 164.801 C 308.451 164.737,308.774 162.868,309.080 160.646 L 309.636 156.607 312.320 156.542 L 315.003 156.477 315.161 155.073 C 315.249 154.301,315.415 153.499,315.531 153.292 C 315.706 152.979,316.445 148.467,316.445 147.714 C 316.445 147.573,312.704 147.490,306.315 147.490 L 296.184 147.490 295.799 150.202 M318.873 149.048 C 318.782 149.905,318.627 150.710,318.528 150.837 C 318.429 150.964,318.062 153.093,317.712 155.568 C 317.363 158.044,317.005 160.121,316.916 160.185 C 316.828 160.248,316.518 162.014,316.228 164.108 C 315.938 166.203,315.624 168.021,315.530 168.148 C 315.436 168.275,315.237 169.313,315.086 170.456 C 314.936 171.598,314.753 172.871,314.680 173.283 L 314.548 174.033 319.614 174.033 L 324.681 174.033 325.208 170.283 C 325.498 168.220,325.808 166.480,325.898 166.417 C 325.987 166.353,326.299 164.591,326.591 162.500 C 326.883 160.409,327.207 158.540,327.311 158.345 C 327.414 158.151,327.728 156.330,328.008 154.299 C 328.288 152.268,328.595 150.502,328.691 150.375 C 328.787 150.248,328.939 149.547,329.029 148.817 L 329.193 147.490 324.116 147.490 L 319.038 147.490 318.873 149.048 M329.833 148.163 C 329.833 148.533,329.918 148.871,330.023 148.913 C 330.128 148.956,330.451 150.444,330.742 152.222 C 331.033 153.999,331.344 155.505,331.434 155.568 C 331.525 155.632,331.897 157.398,332.262 159.492 C 332.627 161.587,332.989 163.353,333.066 163.416 C 333.144 163.480,333.449 164.932,333.745 166.644 C 334.040 168.356,334.371 169.914,334.480 170.106 C 334.589 170.299,334.814 171.235,334.980 172.187 L 335.282 173.918 339.759 173.981 L 344.235 174.044 344.751 173.444 C 345.034 173.114,345.455 172.385,345.686 171.824 C 345.916 171.263,346.165 170.803,346.239 170.803 C 346.312 170.802,346.624 170.257,346.931 169.590 C 347.238 168.924,347.669 168.180,347.888 167.937 C 348.107 167.694,348.401 167.149,348.541 166.725 C 348.681 166.302,348.868 165.955,348.958 165.955 C 349.047 165.955,349.421 165.280,349.789 164.455 C 350.157 163.630,350.522 162.954,350.599 162.954 C 350.676 162.954,350.991 162.383,351.298 161.685 C 351.606 160.987,351.921 160.415,352.000 160.415 C 352.078 160.415,352.394 159.870,352.701 159.204 C 353.009 158.537,353.416 157.818,353.606 157.606 C 353.797 157.394,354.157 156.693,354.407 156.048 C 354.658 155.403,354.944 154.876,355.045 154.876 C 355.146 154.876,355.493 154.331,355.817 153.664 C 356.567 152.120,357.459 150.444,357.694 150.137 C 359.633 147.609,359.442 147.488,353.549 147.503 L 348.413 147.517 347.686 149.061 C 347.286 149.911,346.769 151.073,346.538 151.645 C 346.307 152.216,346.050 152.735,345.967 152.799 C 345.884 152.862,345.574 153.485,345.277 154.183 C 344.981 154.882,344.604 155.590,344.441 155.758 C 344.277 155.926,344.143 156.208,344.143 156.385 C 344.143 156.759,343.415 158.394,343.166 158.580 C 343.073 158.650,342.794 159.325,342.546 160.080 L 342.095 161.454 342.080 160.470 C 342.072 159.929,341.970 159.306,341.853 159.085 C 341.736 158.865,341.405 156.166,341.116 153.087 L 340.591 147.490 335.212 147.490 L 329.833 147.490 329.833 148.163 M359.531 147.644 C 359.446 147.728,359.377 148.196,359.377 148.682 C 359.377 149.169,359.293 149.567,359.190 149.567 C 359.088 149.567,358.758 151.307,358.457 153.433 C 358.157 155.560,357.839 157.351,357.751 157.415 C 357.663 157.478,357.363 159.192,357.084 161.223 C 356.806 163.254,356.484 165.124,356.370 165.378 C 356.255 165.632,355.947 167.398,355.684 169.302 C 355.421 171.206,355.150 173.050,355.081 173.399 L 354.955 174.033 363.950 174.033 C 371.014 174.033,372.970 173.970,373.058 173.740 C 373.120 173.579,373.303 172.462,373.466 171.259 C 373.628 170.055,373.832 169.019,373.921 168.956 C 374.009 168.892,374.152 168.295,374.238 167.628 L 374.396 166.417 370.139 166.417 C 365.445 166.417,365.842 166.561,366.176 164.974 L 366.310 164.339 369.999 164.339 L 373.687 164.339 373.687 163.762 C 373.687 163.445,373.774 163.185,373.881 163.185 C 374.042 163.185,374.843 158.423,374.842 157.473 C 374.841 157.254,373.944 157.184,371.124 157.184 C 367.828 157.184,367.422 157.143,367.546 156.819 C 367.623 156.618,367.686 156.153,367.686 155.786 L 367.686 155.117 371.897 155.054 L 376.108 154.991 376.290 153.606 C 376.389 152.845,376.567 152.014,376.683 151.760 C 376.869 151.356,377.380 148.405,377.380 147.734 C 377.380 147.462,359.802 147.373,359.531 147.644 M215.077 156.896 C 218.841 160.242,213.498 167.549,209.339 164.743 C 207.557 163.541,207.870 159.370,209.870 157.668 C 211.834 155.996,213.746 155.712,215.077 156.896 M281.552 157.300 C 283.432 159.292,282.143 163.768,279.350 164.949 C 276.602 166.110,274.258 164.775,274.223 162.030 C 274.196 159.965,274.467 159.303,275.955 157.790 C 277.885 155.829,279.990 155.644,281.552 157.300 M135.590 160.473 C 135.674 161.774,135.797 163.125,135.864 163.474 L 135.986 164.108 134.467 164.108 C 132.668 164.108,132.685 164.178,133.859 161.685 C 134.359 160.622,134.838 159.382,134.923 158.929 C 135.194 157.486,135.433 158.040,135.590 160.473 " stroke="none" fill="#040404" fill-rule="evenodd"></path><path id="path2" d="M199.112 40.565 C 199.053 40.661,200.111 40.711,201.464 40.678 C 206.002 40.566,206.490 40.480,202.841 40.436 C 200.849 40.412,199.171 40.470,199.112 40.565 M161.916 44.712 C 161.209 44.882,160.992 45.198,161.671 45.068 C 162.000 45.005,162.325 44.862,162.394 44.750 C 162.464 44.638,162.488 44.559,162.449 44.574 C 162.409 44.589,162.170 44.651,161.916 44.712 M238.088 46.168 C 238.241 46.416,239.123 46.613,239.123 46.399 C 239.123 46.299,238.866 46.168,238.553 46.108 C 238.239 46.048,238.030 46.075,238.088 46.168 M179.688 50.548 L 178.534 50.706 179.617 50.743 C 180.213 50.763,180.764 50.675,180.842 50.548 C 180.921 50.421,180.953 50.334,180.914 50.354 C 180.875 50.374,180.323 50.461,179.688 50.548 M217.426 50.637 C 217.426 50.686,217.733 50.772,218.107 50.826 C 218.481 50.881,218.734 50.841,218.670 50.737 C 218.556 50.552,217.426 50.462,217.426 50.637 M307.963 68.018 C 308.185 68.076,308.549 68.076,308.771 68.018 C 308.993 67.960,308.811 67.913,308.367 67.913 C 307.923 67.913,307.741 67.960,307.963 68.018 M195.557 71.250 C 195.779 71.308,196.143 71.308,196.365 71.250 C 196.587 71.192,196.405 71.144,195.961 71.144 C 195.516 71.144,195.335 71.192,195.557 71.250 M213.618 72.696 C 214.061 72.896,215.297 73.027,215.099 72.852 C 215.046 72.806,214.587 72.704,214.080 72.627 C 213.436 72.529,213.296 72.550,213.618 72.696 M297.461 74.254 C 297.747 74.309,298.214 74.309,298.500 74.254 C 298.785 74.199,298.552 74.154,297.980 74.154 C 297.409 74.154,297.175 74.199,297.461 74.254 M336.295 75.130 C 336.613 75.311,336.976 75.460,337.103 75.460 C 337.230 75.460,337.074 75.311,336.757 75.130 C 336.440 74.948,336.076 74.800,335.949 74.800 C 335.822 74.800,335.978 74.948,336.295 75.130 M320.138 76.951 C 320.138 77.001,320.495 77.083,320.930 77.134 C 321.366 77.184,321.671 77.144,321.609 77.044 C 321.497 76.863,320.138 76.777,320.138 76.951 M120.769 154.876 C 120.769 155.320,120.817 155.502,120.875 155.280 C 120.933 155.058,120.933 154.694,120.875 154.472 C 120.817 154.250,120.769 154.432,120.769 154.876 M67.021 159.954 C 67.021 161.287,67.059 161.832,67.106 161.166 C 67.153 160.499,67.153 159.409,67.106 158.742 C 67.059 158.076,67.021 158.621,67.021 159.954 M67.021 164.801 C 67.021 166.134,67.059 166.679,67.106 166.013 C 67.153 165.346,67.153 164.256,67.106 163.589 C 67.059 162.923,67.021 163.468,67.021 164.801 M44.778 165.480 C 44.778 165.853,44.860 166.209,44.960 166.271 C 45.061 166.333,45.101 166.028,45.051 165.593 C 44.937 164.623,44.778 164.557,44.778 165.480 " stroke="none" fill="#c01018" fill-rule="evenodd"></path><path id="path3" d="" stroke="none" fill="#341018" fill-rule="evenodd"></path><path id="path4" d="" stroke="none" fill="#04101c" fill-rule="evenodd"></path></g></svg>